<svg width="60" height="60" viewBox="0 0 60 60" fill="none" xmlns="http://www.w3.org/2000/svg">
<rect x="6.95117" y="7.09253" width="44.4248" height="44.0895" fill="white"/>
<rect x="6.95117" y="7.09253" width="44.4248" height="44.0895" fill="white"/>
<path d="M60 0L54.3741 54.1662L29.9996 60L5.62469 54.1662L0 0H60ZM48.6636 11.0139H29.9777H10.9608L11.8702 17.5549H29.9777H30.9948L29.9777 17.9313L12.532 24.3899L13.1106 30.7836L29.9777 30.8323L39.0179 30.8577L38.4392 39.3829L29.9775 41.5006V41.4939L29.9082 41.511L21.7363 39.6773L21.2405 34.3853H21.2134H13.6336H13.6069L14.599 44.6014L29.9778 48.644V48.6367L30.0055 48.644L45.3019 44.675L47.2861 24.3899H29.9778H29.9351L29.9778 24.3735L47.9201 17.5549L48.6636 11.0139Z" fill="#33AADD"/>
<path d="M60 0L54.3741 54.1662L29.9996 60L5.62469 54.1662L0 0H60ZM48.6636 11.0139H29.9777H10.9608L11.8702 17.5549H29.9777H30.9948L29.9777 17.9313L12.532 24.3899L13.1106 30.7836L29.9777 30.8323L39.0179 30.8577L38.4392 39.3829L29.9775 41.5006V41.4939L29.9082 41.511L21.7363 39.6773L21.2405 34.3853H21.2134H13.6336H13.6069L14.599 44.6014L29.9778 48.644V48.6367L30.0055 48.644L45.3019 44.675L47.2861 24.3899H29.9778H29.9351L29.9778 24.3735L47.9201 17.5549L48.6636 11.0139Z" fill="#33AADD"/>
</svg>
