<svg width="60" height="60" viewBox="0 0 60 60" fill="none" xmlns="http://www.w3.org/2000/svg">
<path d="M24.4628 46.9468C27.5205 46.9468 30.0027 44.4646 30.0027 41.4069V35.8669H24.4628C21.4051 35.8669 18.9229 38.3492 18.9229 41.4069C18.9229 44.4646 21.4051 46.9468 24.4628 46.9468Z" fill="#0ACF83"/>
<path d="M18.9131 30.3212C18.9131 27.2635 21.3953 24.7812 24.453 24.7812H29.993V35.8669H24.453C21.3953 35.8669 18.9131 33.3847 18.9131 30.327V30.3212Z" fill="#A259FF"/>
<path d="M18.9131 19.2355C18.9131 16.1778 21.3953 13.6956 24.453 13.6956H29.993V24.7812H24.453C21.3953 24.7812 18.9131 22.299 18.9131 19.2413V19.2355Z" fill="#F24E1E"/>
<path d="M29.9492 13.6956H35.4892C38.5469 13.6956 41.0291 16.1778 41.0291 19.2355C41.0291 22.2932 38.5469 24.7754 35.4892 24.7754H29.9492V13.6956Z" fill="#FF7262"/>
<path d="M41.0872 30.3212C41.0872 33.3789 38.605 35.8611 35.5473 35.8611C32.4896 35.8611 29.9492 33.3789 29.9492 30.3212C29.9492 27.2635 32.4314 24.7812 35.4892 24.7812C38.5469 24.7812 41.0291 27.2635 41.0291 30.3212H41.0872Z" fill="#1ABCFE"/>
</svg>
