<svg width="60" height="60" viewBox="0 0 60 60" fill="none" xmlns="http://www.w3.org/2000/svg">
<path d="M29.7892 10.4348C18.7411 10.4348 9.78223 19.3921 9.78223 30.4417C9.78223 39.2815 15.5148 46.7809 23.4642 49.4264C24.4641 49.6116 24.8312 48.9924 24.8312 48.4639C24.8312 47.9869 24.8126 46.4107 24.8041 44.739C19.238 45.9493 18.0635 42.3784 18.0635 42.3784C17.1534 40.0659 15.8421 39.4511 15.8421 39.4511C14.027 38.2093 15.979 38.2347 15.979 38.2347C17.988 38.3759 19.0459 40.2965 19.0459 40.2965C20.8303 43.3552 23.7263 42.4709 24.868 41.9598C25.0475 40.6665 25.5661 39.7841 26.1382 39.2845C21.6944 38.7784 17.0229 37.0629 17.0229 29.3969C17.0229 27.2127 17.8045 25.4278 19.0844 24.0268C18.8766 23.5228 18.1919 21.4879 19.2782 18.7321C19.2782 18.7321 20.9582 18.1944 24.7815 20.7829C26.3773 20.3395 28.0889 20.1173 29.7892 20.1098C31.4894 20.1173 33.2023 20.3395 34.8012 20.7829C38.6199 18.1944 40.2976 18.7321 40.2976 18.7321C41.3866 21.4879 40.7015 23.5228 40.4938 24.0268C41.7765 25.4278 42.5528 27.2125 42.5528 29.3969C42.5528 37.0811 37.8724 38.7732 33.4174 39.2685C34.135 39.8894 34.7744 41.107 34.7744 42.9734C34.7744 45.6503 34.7511 47.8049 34.7511 48.4639C34.7511 48.9963 35.1113 49.6202 36.1255 49.4237C44.0706 46.7752 49.7959 39.2785 49.7959 30.4417C49.7959 19.3921 40.8384 10.4348 29.7892 10.4348Z" fill="white"/>
</svg>
