<svg width="60" height="60" viewBox="0 0 60 60" fill="none" xmlns="http://www.w3.org/2000/svg">
<path d="M0 12C0 5.37258 5.37258 0 12 0H48C54.6274 0 60 5.37258 60 12V48C60 54.6274 54.6274 60 48 60H12C5.37258 60 0 54.6274 0 48V12Z" fill="#F7DF1E"/>
<path d="M15.7786 50.1403L20.37 47.3616C21.2559 48.9321 22.0617 50.261 23.9946 50.261C25.8473 50.261 27.0157 49.5364 27.0157 46.7173V27.5459H32.654V46.797C32.654 52.6369 29.2307 55.2952 24.2362 55.2952C19.7257 55.2952 17.1075 52.9592 15.7783 50.1399M35.7166 49.5361L40.3075 46.8781C41.5162 48.8517 43.087 50.3016 45.8657 50.3016C48.2022 50.3016 49.6919 49.1335 49.6919 47.5224C49.6919 45.5892 48.1615 44.9044 45.5838 43.7771L44.1745 43.1724C40.1064 41.441 37.4081 39.266 37.4081 34.6746C37.4081 30.4456 40.63 27.2234 45.6647 27.2234C49.2492 27.2234 51.8268 28.4721 53.6793 31.7344L49.289 34.5539C48.3222 32.8221 47.2755 32.1375 45.6644 32.1375C44.013 32.1375 42.9658 33.1847 42.9658 34.5539C42.9658 36.2454 44.013 36.9305 46.4294 37.9777L47.8389 38.5817C52.6319 40.636 55.3303 42.7301 55.3303 47.442C55.3303 52.5171 51.3431 55.2959 45.9864 55.2959C40.7507 55.2959 37.3675 52.7989 35.7164 49.5364" fill="#1E1E1E"/>
</svg>
