<svg id="Layer_1" data-name="Layer 1" xmlns="http://www.w3.org/2000/svg" viewBox="0 0 443.73 500"><defs><style>.cls-1{fill:#539e43;}</style></defs><path class="cls-1" d="M500,750a40.33,40.33,0,0,1-19.29-5l-61.1-36.29c-9.18-5-4.59-6.89-1.83-7.81,12.4-4.13,14.7-5.05,27.56-12.4,1.38-.92,3.21-.46,4.59.46l46.85,28a5.85,5.85,0,0,0,5.52,0L685.58,610.82a5.29,5.29,0,0,0,2.75-5.06V394a5.29,5.29,0,0,0-2.75-5.06L502.3,283.3a5.85,5.85,0,0,0-5.52,0L313.5,389a5.78,5.78,0,0,0-2.75,5.06V605.76a5.78,5.78,0,0,0,2.75,5.06l50.07,28.94c27.11,13.78,44.1-2.3,44.1-18.38v-209a5.58,5.58,0,0,1,5.51-5.51h23.43a5.58,5.58,0,0,1,5.51,5.51v209c0,36.29-19.75,57.42-54.2,57.42-10.57,0-18.83,0-42.26-11.48l-48.23-27.56a38.76,38.76,0,0,1-19.29-33.54V394.46a38.75,38.75,0,0,1,19.29-33.53L480.71,254.82a41,41,0,0,1,38.58,0L702.57,360.93a38.75,38.75,0,0,1,19.29,33.53V606.22a38.76,38.76,0,0,1-19.29,33.54L519.29,745.87A47.09,47.09,0,0,1,500,750Zm56.5-145.61c-80.39,0-96.92-36.75-96.92-68a5.58,5.58,0,0,1,5.51-5.51H489c2.75,0,5,1.84,5,4.59,3.67,24.35,14.24,36.29,62.93,36.29,38.58,0,55.12-8.72,55.12-29.4,0-11.94-4.59-20.67-64.77-26.64-50.07-5.05-81.3-16.07-81.3-56,0-37.2,31.23-59.25,83.6-59.25,58.8,0,87.73,20.21,91.41,64.31a7.41,7.41,0,0,1-1.38,4.13,5.68,5.68,0,0,1-3.67,1.84H612.08a5.38,5.38,0,0,1-5.05-4.14c-5.51-25.26-19.75-33.53-57.42-33.53-42.26,0-47.31,14.7-47.31,25.72,0,13.32,6,17.46,62.93,24.81,56.5,7.35,83.14,17.91,83.14,57.42-.46,40.42-33.53,63.39-91.87,63.39Z" transform="translate(-278.14 -250)"/></svg>