<svg width="60" height="60" viewBox="0 0 60 60" fill="none" xmlns="http://www.w3.org/2000/svg">
<path fill-rule="evenodd" clip-rule="evenodd" d="M24.9779 12.489C19.2392 12.9326 14.3599 13.3207 14.1382 13.3485C13.5005 13.4871 12.9183 13.9029 12.6411 14.4851L12.3916 14.9841L12.4193 27.0159L12.447 39.0477L12.8074 39.7963C13.0292 40.2121 14.4154 42.1527 15.9402 44.1211C18.962 48.0577 19.1838 48.2518 20.3204 48.3904C20.6531 48.4181 23.1759 48.3072 25.865 48.1409C28.5819 47.9746 32.9621 47.6973 35.5681 47.5587C46.7405 46.8656 46.1583 46.9211 46.8236 46.3666C47.6276 45.7013 47.5444 46.8102 47.5999 32.1724C47.6276 19.7802 47.5999 18.9485 47.4058 18.5881C47.2118 18.1445 46.8236 17.8673 41.7226 14.291C38.3127 11.8791 38.0632 11.7682 36.5384 11.7405C35.9008 11.7128 30.6888 12.0732 24.9779 12.489Z" fill="#111111"/>
<path fill-rule="evenodd" clip-rule="evenodd" d="M24.9779 12.489C19.2392 12.9326 14.3599 13.3207 14.1382 13.3485C13.5005 13.4871 12.9183 13.9029 12.6411 14.4851L12.3916 14.9841L12.4193 27.0159L12.447 39.0477L12.8074 39.7963C13.0292 40.2121 14.4154 42.1527 15.9402 44.1211C18.962 48.0577 19.1838 48.2518 20.3204 48.3904C20.6531 48.4181 23.1759 48.3072 25.865 48.1409C28.5819 47.9746 32.9621 47.6973 35.5681 47.5587C46.7405 46.8656 46.1583 46.9211 46.8236 46.3666C47.6276 45.7013 47.5444 46.8102 47.5999 32.1724C47.6276 19.7802 47.5999 18.9485 47.4058 18.5881C47.2118 18.1445 46.8236 17.8673 41.7226 14.291C38.3127 11.8791 38.0632 11.7682 36.5384 11.7405C35.9008 11.7128 30.6888 12.0732 24.9779 12.489ZM37.8691 14.0693C38.3681 14.291 41.8889 16.7307 42.388 17.202C42.5266 17.3406 42.582 17.4792 42.4988 17.5346C42.3602 17.6732 20.5422 18.9762 19.9046 18.8653C19.6273 18.8376 19.2115 18.6713 18.962 18.5049C17.9639 17.8119 15.4966 15.7881 15.4966 15.6495C15.4966 15.2613 15.4134 15.2613 25.1165 14.5405C26.9739 14.4297 30.0512 14.2079 31.9086 14.0415C35.9285 13.7366 37.1206 13.7366 37.8691 14.0693ZM44.7999 20.3347C44.9662 20.501 45.1048 20.806 45.1603 21.1109C45.188 21.3881 45.2157 26.5446 45.188 32.5328C45.1603 42.7903 45.1325 43.4557 44.9385 43.7329C44.8276 43.927 44.6058 44.1211 44.4117 44.1765C43.9404 44.3706 21.0966 45.6735 20.6254 45.5349C20.4036 45.4795 20.0986 45.2854 19.96 45.1191L19.6828 44.8418L19.655 33.7526C19.6273 25.9624 19.655 22.5248 19.7382 22.2198C19.7937 21.998 19.9877 21.7208 20.1263 21.6099C20.3204 21.4713 21.6788 21.3604 26.3363 21.0832C29.6076 20.9168 34.6809 20.6119 37.5641 20.4178C44.4949 20.002 44.4672 20.002 44.7999 20.3347Z" fill="white"/>
<path fill-rule="evenodd" clip-rule="evenodd" d="M38.6733 24.1324C37.4258 24.2156 36.3168 24.3265 36.206 24.4097C35.8178 24.6037 35.596 24.9364 35.5406 25.2968C35.5129 25.6572 35.6238 25.7126 36.8713 25.879L37.398 25.9344V30.8414C37.398 33.7523 37.3703 35.6652 37.2872 35.6098C37.2317 35.5543 35.6238 33.0593 33.6832 30.1206C31.7425 27.1265 30.1346 24.6869 30.1069 24.6869C30.0792 24.6592 28.8316 24.7146 27.3068 24.8255C25.4494 24.9364 24.4237 25.075 24.2296 25.1859C23.8969 25.3522 23.5088 25.9622 23.5088 26.3503C23.5088 26.5998 23.9524 26.7384 24.8672 26.7384H25.3662V40.8217L24.5623 41.0712C23.9801 41.2376 23.7583 41.3485 23.6474 41.598C23.4811 41.9861 23.4811 42.3188 23.6751 42.3188C23.7306 42.3188 25.0336 42.2633 26.5306 42.1524C29.4692 41.9861 29.8019 41.9029 30.1069 41.293C30.2178 41.1267 30.3009 40.9326 30.3009 40.8494C30.3009 40.8217 29.8851 40.6831 29.4138 40.5722C28.9148 40.4613 28.4158 40.3227 28.3049 40.3227C28.1108 40.2673 28.1108 39.9069 28.1108 34.9721V29.677L31.6039 35.1385C35.2634 40.8772 35.7069 41.5425 36.2891 41.8197C36.9822 42.1801 38.7565 41.9306 39.6436 41.3485L39.9208 41.1821L39.9486 33.3642L39.9763 25.5186L40.5862 25.4077C41.307 25.2691 41.6397 24.9364 41.6397 24.3542C41.6397 23.9938 41.612 23.9661 41.2793 23.9938C41.0852 23.9938 39.8931 24.077 38.6733 24.1324Z" fill="white"/>
</svg>
