<svg width="60" height="60" viewBox="0 0 60 60" fill="none" xmlns="http://www.w3.org/2000/svg">
<path d="M35.0057 29.589C35.0057 27.0472 32.9488 24.9863 30.4111 24.9863C27.8737 24.9863 25.8164 27.0472 25.8164 29.589C25.8164 32.1311 27.8737 34.1918 30.4111 34.1918C32.9488 34.1918 35.0057 32.1311 35.0057 29.589Z" fill="#53C1DE"/>
<path fill-rule="evenodd" clip-rule="evenodd" d="M45.1899 21.0098C46.1508 17.064 47.3587 9.74687 43.1005 7.26613C38.8623 4.79621 33.347 9.52903 30.4347 12.3699C27.5309 9.55734 21.8607 4.84475 17.6062 7.33337C13.3696 9.81157 14.6761 17.0074 15.6583 20.9779C11.7063 22.1122 4.93164 24.5552 4.93164 29.5465C4.93164 34.5236 11.6993 37.1815 15.6279 38.3147C14.642 42.3072 13.4009 49.4002 17.6429 51.8729C21.9134 54.3611 27.5659 49.7606 30.5052 46.8887C33.4362 49.7463 38.8985 54.3768 43.1376 51.8972C47.3899 49.4098 46.2824 42.1907 45.3001 38.1971C49.1084 37.0615 55.8905 34.4615 55.8905 29.5465C55.8905 24.6031 49.0795 22.1403 45.1899 21.0098ZM44.7071 36.0808C44.0621 34.0177 43.1916 31.8238 42.1267 29.5574C43.1432 27.3446 43.9799 25.179 44.6069 23.1292C47.4584 23.9646 53.7137 25.8738 53.7137 29.5465C53.7137 33.2536 47.711 35.1809 44.7071 36.0808ZM42.0467 49.9934C38.8839 51.8434 34.1856 47.4152 32.0211 45.3109C33.4571 43.7238 34.8921 41.8788 36.2926 39.8301C38.7563 39.6093 41.0836 39.2482 43.1943 38.7551C43.8856 41.58 45.2235 48.1352 42.0467 49.9934ZM18.7307 49.9671C15.5675 48.124 17.0133 41.7945 17.7386 38.8536C19.8258 39.3202 22.1364 39.6559 24.6059 39.8582C26.0155 41.8629 27.4922 43.7056 28.9802 45.3194C27.1417 47.1164 21.9086 51.8186 18.7307 49.9671ZM7.10842 29.5465C7.10842 25.8255 13.3264 23.9301 16.2429 23.0968C16.8807 25.1926 17.7171 27.3841 18.7266 29.6001C17.7041 31.8491 16.8556 34.0752 16.212 36.1958C13.4311 35.3914 7.10842 33.2697 7.10842 29.5465ZM18.6968 9.23713C21.8729 7.37943 26.801 11.9037 28.9093 13.9401C27.429 15.5464 25.9659 17.3752 24.5683 19.3684C22.1717 19.5929 19.8775 19.9533 17.7683 20.4362C16.9771 17.2338 15.5242 11.0928 18.6968 9.23713ZM37.8499 21.7593C39.4758 21.9666 41.0336 22.2425 42.4963 22.5799C42.0572 24.0021 41.5099 25.4893 40.8653 27.0139C39.9309 25.2224 38.9279 23.4668 37.8499 21.7593ZM30.4354 15.512C31.4394 16.6111 32.445 17.8385 33.4343 19.1701C31.4277 19.0742 29.4179 19.0738 27.4113 19.1687C28.4014 17.8495 29.4157 16.6239 30.4354 15.512ZM19.9756 27.0123C19.3416 25.4931 18.7992 23.9993 18.3563 22.5567C19.8102 22.2279 21.3608 21.9592 22.9762 21.7553C21.8952 23.459 20.8938 25.2139 19.9756 27.0123ZM23.0226 37.4947C21.3538 37.3065 19.7798 37.0514 18.3263 36.7317C18.7762 35.2638 19.3306 33.7378 19.978 32.1858C20.909 34.003 21.9256 35.7749 23.0226 37.4947ZM30.4957 43.7364C29.4639 42.6113 28.4347 41.367 27.4297 40.0287C29.4476 40.1087 31.4695 40.1089 33.4873 40.0179C32.495 41.3806 31.493 42.6267 30.4957 43.7364ZM40.886 32.1068C41.5672 33.6757 42.1413 35.1933 42.5974 36.6365C41.1198 36.9772 39.5246 37.2516 37.8438 37.4554C38.9297 35.7156 39.9487 33.9327 40.886 32.1068ZM35.0777 37.722C31.991 37.9449 28.885 37.9424 25.7973 37.7402C24.0428 35.1505 22.4809 32.4269 21.1327 29.5994C22.4744 26.7777 24.0249 24.0595 25.7711 21.4738C28.8611 21.2378 31.9701 21.2371 35.0601 21.4752C36.7913 24.0607 38.3394 26.7719 39.7123 29.5681C38.3558 32.3883 36.7971 35.1121 35.0777 37.722ZM42.0132 9.17174C45.1902 11.0233 43.7761 17.5995 43.082 20.4591C40.9679 19.966 38.672 19.5992 36.2685 19.3712C34.8681 17.3565 33.4173 15.5245 31.9609 13.9389C34.0963 11.8587 38.867 7.33824 42.0132 9.17174Z" fill="#53C1DE"/>
</svg>
