<svg width="60" height="60" viewBox="0 0 60 60" fill="none" xmlns="http://www.w3.org/2000/svg">
<path fill-rule="evenodd" clip-rule="evenodd" d="M20.1967 34.4646C20.1967 36.4358 18.6058 38.0268 16.6345 38.0268C14.6632 38.0268 13.0723 36.4305 13.0723 34.4646C13.0723 32.4986 14.6632 30.9023 16.6345 30.9023H20.1967V34.4646ZM21.9751 34.4646C21.9751 32.4933 23.5661 30.9023 25.5374 30.9023C27.5086 30.9023 29.0996 32.4933 29.0996 34.4646V43.3674C29.0996 45.3387 27.5086 46.9297 25.5374 46.9297C23.5661 46.9297 21.9751 45.3387 21.9751 43.3674V34.4646Z" fill="#E01E5A"/>
<path fill-rule="evenodd" clip-rule="evenodd" d="M25.5358 20.1679C23.5646 20.1679 21.9736 18.577 21.9736 16.6057C21.9736 14.6344 23.5646 13.0435 25.5358 13.0435C27.5071 13.0435 29.0981 14.6344 29.0981 16.6057V20.1679H25.5358ZM25.5358 21.9731C27.5071 21.9731 29.0981 23.5641 29.0981 25.5353C29.0981 27.5066 27.5071 29.0976 25.5358 29.0976H16.6062C14.6349 29.0976 13.0439 27.5013 13.0439 25.5353C13.0439 23.5694 14.6349 21.9731 16.6062 21.9731H25.5358Z" fill="#36C5F0"/>
<path fill-rule="evenodd" clip-rule="evenodd" d="M39.8052 25.5353C39.8052 23.5641 41.3962 21.9731 43.3674 21.9731C45.3387 21.9731 46.9297 23.5641 46.9297 25.5353C46.9297 27.5066 45.3387 29.0976 43.3674 29.0976H39.8052V25.5353ZM38.0268 25.5353C38.0268 27.5066 36.4358 29.0976 34.4646 29.0976C32.4933 29.0976 30.9023 27.5066 30.9023 25.5353V16.6057C30.9023 14.6344 32.4933 13.0435 34.4646 13.0435C36.4358 13.0435 38.0268 14.6344 38.0268 16.6057V25.5353Z" fill="#2EB67D"/>
<path fill-rule="evenodd" clip-rule="evenodd" d="M34.4646 39.8052C36.4358 39.8052 38.0268 41.3962 38.0268 43.3674C38.0268 45.3387 36.4358 46.9297 34.4646 46.9297C32.4933 46.9297 30.9023 45.3387 30.9023 43.3674V39.8052H34.4646ZM34.4646 38.0268C32.4933 38.0268 30.9023 36.4358 30.9023 34.4646C30.9023 32.4933 32.4933 30.9023 34.4646 30.9023H43.3942C45.3655 30.9023 46.9565 32.4933 46.9565 34.4646C46.9565 36.4358 45.3655 38.0268 43.3942 38.0268H34.4646Z" fill="#ECB22E"/>
</svg>
